<svg version="1.2" xmlns="http://www.w3.org/2000/svg" viewBox="0 0 57 57" width="57" height="57"><style>.a{fill:#fefefe}.b{fill:#fefefe;stroke:#14467a;stroke-miterlimit:10}</style><path class="a" d="m56.7 28.2c0 15.6-12.7 28.2-28.2 28.2-15.6 0-28.3-12.6-28.3-28.2 0-15.6 12.7-28.2 28.3-28.2 15.5 0 28.2 12.6 28.2 28.2z"/><path fill-rule="evenodd" class="b" d="m45.2 23.9c0 0.3-0.2 0.5-0.5 0.5h-5.5v0.9c0 0.2-0.2 0.4-0.5 0.4-0.2 0-0.4-0.2-0.4-0.4v-0.9h-19.5v0.9c0 0.2-0.2 0.4-0.4 0.4-0.2 0-0.5-0.2-0.5-0.4v-0.9h-5c-0.3 0-0.5-0.2-0.5-0.5 0-0.2 0.2-0.4 0.5-0.4h5v-6.7c0-0.6 0.5-1.1 1.1-1.1h19.1c0.6 0 1.1 0.5 1.1 1.1v6.7h5.5c0.3 0 0.5 0.2 0.5 0.4zm-6.9-0.4v-6.9h-19.5v6.9z"/><path class="b" d="m38.8 35.9l2.6-7.2c0.1-0.2 0-0.5-0.3-0.6-0.2-0.1-0.5 0.1-0.5 0.3l-2.6 7.2c-0.1 0.2 0 0.5 0.3 0.6 0.2 0.1 0.5-0.1 0.5-0.3z"/><path class="b" d="m27.9 39.9h-6.9l-4.1-11.5c-0.1-0.2-0.4-0.4-0.6-0.3-0.2 0.1-0.4 0.4-0.3 0.6l4.2 11.8c0.1 0.2 0.3 0.3 0.4 0.3h7.3c0.3 0 0.5-0.2 0.5-0.4 0-0.3-0.2-0.5-0.5-0.5z"/><path class="b" d="m25.1 35.9v-7.5c0-0.2-0.2-0.4-0.4-0.4-0.3 0-0.5 0.2-0.5 0.4v7.5c0 0.2 0.2 0.4 0.5 0.4 0.2 0 0.4-0.2 0.4-0.4z"/><path class="b" d="m28.7 28c-0.2 0-0.4 0.2-0.4 0.4v3.4c0 0.3 0.2 0.5 0.4 0.5 0.3 0 0.5-0.2 0.5-0.5v-3.4c0-0.2-0.2-0.4-0.5-0.4z"/><path class="b" d="m32.8 28c-0.3 0-0.5 0.2-0.5 0.4v7.8c0 0.2 0.2 0.4 0.5 0.4 0.2 0 0.4-0.2 0.4-0.4v-7.8c0-0.2-0.2-0.4-0.4-0.4z"/></svg>