<svg version="1.2" xmlns="http://www.w3.org/2000/svg" viewBox="0 0 34 34" width="34" height="34"><style>.a{fill:#f16334}.b{fill:#fefefe;stroke:#fefefe;stroke-miterlimit:10;stroke-width:2}</style><path class="a" d="m33.2 16.8c0 9.2-7.4 16.6-16.6 16.6-9.2 0-16.6-7.4-16.6-16.6 0-9.1 7.4-16.6 16.6-16.6 9.2 0 16.6 7.5 16.6 16.6z"/><path class="b" d="m25.8 9.3l-13.6 13.7-4.2-4.6c-0.3-0.2-0.6-0.2-0.8 0.1-0.2 0.3-0.1 0.6 0.1 0.8l4.6 4.9q0.2 0.1 0.3 0.1 0.3 0 0.4-0.2l14-14c0.3-0.2 0.3-0.6 0-0.8-0.2-0.2-0.5-0.2-0.8 0z"/></svg>