<svg version="1.2" xmlns="http://www.w3.org/2000/svg" viewBox="0 0 24 23" width="24" height="23"><style>.a{fill:#f06333;stroke:#fefefe;stroke-miterlimit:10;stroke-width:1.5}</style><path class="a" d="m1 22v-16c0-0.2 0.1-0.3 0.3-0.3h7.7c0.2 0 0.3 0.1 0.3 0.3 0 0.1-0.1 0.3-0.3 0.3h-7.4v15.4h20.4v-15.4h-7.9c-0.2 0-0.3-0.2-0.3-0.3 0-0.2 0.1-0.3 0.3-0.3h8.2c0.1 0 0.3 0.1 0.3 0.3v16c0 0.2-0.2 0.3-0.3 0.3h-21c-0.2 0-0.3-0.1-0.3-0.3z"/><path class="a" d="m11.3 13.6v-12.4c0-0.2 0.1-0.3 0.3-0.3 0.1 0 0.3 0.1 0.3 0.3v12.4c0 0.2-0.2 0.3-0.3 0.3-0.2 0-0.3-0.1-0.3-0.3z"/><path class="a" d="m9.1 11q0-0.2 0.1-0.3c0.2-0.1 0.3 0 0.4 0.1l2 2.7 1.9-2.7c0.1-0.1 0.3-0.2 0.4-0.1 0.1 0.1 0.2 0.3 0.1 0.4l-2.2 3.1q-0.1 0.1-0.2 0.1-0.2 0-0.3-0.1l-2.1-3.1q-0.1 0-0.1-0.1z"/></svg>