<svg version="1.2" xmlns="http://www.w3.org/2000/svg" viewBox="0 0 35 35" width="35" height="35"><style>.a{fill:#f16334}.b{fill:#fefefe;stroke:#fefefe;stroke-miterlimit:10;stroke-width:1.5}</style><path class="a" d="m34.9 17.2c0 9.6-7.8 17.3-17.4 17.3-9.5 0-17.3-7.7-17.3-17.3 0-9.6 7.8-17.3 17.3-17.3 9.6 0 17.4 7.7 17.4 17.3z"/><path class="b" d="m7 25v-16c0-0.2 0.1-0.3 0.3-0.3h7.7c0.2 0 0.3 0.1 0.3 0.3 0 0.1-0.1 0.3-0.3 0.3h-7.4v15.4h20.4v-15.4h-7.9c-0.2 0-0.3-0.2-0.3-0.3 0-0.2 0.1-0.3 0.3-0.3h8.2c0.1 0 0.3 0.1 0.3 0.3v16c0 0.2-0.2 0.3-0.3 0.3h-21c-0.2 0-0.3-0.1-0.3-0.3z"/><path class="b" d="m17.3 16.6v-12.4c0-0.2 0.1-0.3 0.3-0.3 0.1 0 0.3 0.1 0.3 0.3v12.4c0 0.2-0.2 0.3-0.3 0.3-0.2 0-0.3-0.1-0.3-0.3z"/><path class="b" d="m15.1 14q0-0.2 0.1-0.3c0.2-0.1 0.3 0 0.4 0.1l2 2.7 1.9-2.7c0.1-0.1 0.3-0.2 0.4-0.1 0.1 0.1 0.2 0.3 0.1 0.4l-2.2 3.1q-0.1 0.1-0.2 0.1-0.2 0-0.3-0.1l-2.1-3.1q-0.1 0-0.1-0.1z"/></svg>