<svg version="1.2" xmlns="http://www.w3.org/2000/svg" viewBox="0 0 35 34" width="35" height="34"><style>.a{fill:#f16334}.b{fill:#fefefe}</style><path class="a" d="m34.2 16.8c0 9.2-7.4 16.6-16.6 16.6-9.2 0-16.6-7.4-16.6-16.6 0-9.1 7.4-16.6 16.6-16.6 9.2 0 16.6 7.5 16.6 16.6z"/><path class="b" d="m17.2 28.4c-0.2-0.2-0.3-0.5-0.3-0.8v-21.8c0-0.6 0.5-1.1 1.1-1.1 0.6 0 1.1 0.5 1.1 1.1v21.8c0 0.6-0.5 1.1-1.1 1.1-0.3 0-0.6-0.1-0.8-0.3z"/><path class="b" d="m6.5 17.3c-0.2-0.2-0.3-0.4-0.3-0.8 0-0.6 0.5-1.1 1.1-1.1h21.7c0.6 0 1.1 0.5 1.1 1.1 0 0.7-0.5 1.2-1.1 1.2h-21.7c-0.3 0-0.6-0.2-0.8-0.4z"/></svg>