<svg version="1.2" xmlns="http://www.w3.org/2000/svg" viewBox="0 0 39 44" width="39" height="44"><style>.a{fill:#fefefe;stroke:#fefefe;stroke-miterlimit:10}</style><path fill-rule="evenodd" class="a" d="m16.9 32.4c-8.7 0-15.8-7.1-15.8-15.8 0-8.8 7.1-15.9 15.8-15.9 8.8 0 15.9 7.1 15.9 15.9 0 8.7-7.1 15.8-15.9 15.8zm0-30.5c-8.1 0-14.7 6.6-14.7 14.7 0 8.1 6.6 14.7 14.7 14.7 8.1 0 14.7-6.6 14.7-14.7 0-8.1-6.6-14.7-14.7-14.7z"/><path class="a" d="m36.9 42.5q-0.3 0-0.4-0.2l-11.1-13c-0.2-0.2-0.1-0.6 0.1-0.8 0.2-0.2 0.6-0.1 0.8 0.1l11 13c0.2 0.2 0.2 0.6 0 0.8q-0.2 0.1-0.4 0.1z"/></svg>