<svg version="1.2" xmlns="http://www.w3.org/2000/svg" viewBox="0 0 28 43" width="28" height="43"><style>.a{fill:#fefefe;stroke:#fefefe;stroke-miterlimit:10}</style><path fill-rule="evenodd" class="a" d="m13.8 20.8c-5.5 0-10.1-4.5-10.1-10 0-5.5 4.6-10 10.1-10 5.5 0 10 4.5 10 10 0 5.5-4.5 10-10 10zm0-18.9c-4.9 0-8.9 4-8.9 8.9 0 4.9 4 8.9 8.9 8.9 4.9 0 8.9-4 8.9-8.9 0-4.9-4-8.9-8.9-8.9z"/><path fill-rule="evenodd" class="a" d="m26.3 41.7h-24.6c-0.3 0-0.6-0.3-0.6-0.6v-8.5c0-7.1 5.8-12.9 12.9-12.9 7.1 0 12.9 5.8 12.9 12.9v8.5c0 0.3-0.2 0.6-0.6 0.6zm-24-1.2h23.5v-7.9c0-6.5-5.3-11.8-11.8-11.8-6.5 0-11.7 5.3-11.7 11.8z"/></svg>